<svg width="62" height="38" viewBox="0 0 62 38" fill="none" xmlns="http://www.w3.org/2000/svg">
<path d="M27.0271 1.05592C25.0566 1.62454 18.2392 3.52535 11.8508 5.2637C5.47838 7.0183 0.17064 8.48046 0.0752911 8.51295C-0.0518403 8.54545 -0.0200574 8.88662 0.186531 9.66644C0.345445 10.2675 0.50436 10.7874 0.552034 10.8199C0.583817 10.8524 5.17644 9.63394 10.7543 8.1068C16.3481 6.57965 23.1814 4.71133 25.9624 3.94775L31 2.56682L46.1922 6.72586C54.5511 9.01659 61.4162 10.8524 61.448 10.8199C61.4956 10.7874 61.6546 10.2675 61.8135 9.66644C62.0201 8.88662 62.0518 8.54545 61.9247 8.51295C61.8294 8.46421 56.6329 7.05079 50.3875 5.34493C44.1422 3.62283 37.2453 1.72202 35.0841 1.10466C32.9229 0.487301 31.0318 -8.67844e-05 30.8729 -8.67844e-05C30.7298 0.01616 28.9977 0.487301 27.0271 1.05592Z" fill="#33170B"/>
<path d="M5.57391 12.5746V15.0928H6.17779C6.98825 15.0928 7.51267 15.4014 7.84639 16.0675C8.11654 16.6037 8.13243 17.156 8.06887 24.7593C8.03708 29.227 7.95763 33.0124 7.87817 33.1749C7.70336 33.5973 6.95647 33.9384 6.20957 33.9384H5.57391V35.9692V38H11.2154H16.8568V35.9692V33.9384H16.0623C15.1088 33.9384 14.3937 33.5973 14.2188 33.0936C14.1394 32.8824 14.0917 29.0321 14.0917 24.5156C14.0917 18.2121 14.1394 16.23 14.2983 15.9376C14.5526 15.4502 15.3789 15.0928 16.2212 15.0928H16.8568V12.5746V10.0564H15.9828C15.22 10.0564 15.1088 10.1052 15.1088 10.3651C15.1088 10.5438 15.0293 10.7388 14.934 10.8038C14.8386 10.8525 13.1064 10.9012 11.0882 10.885C9.05413 10.885 7.30608 10.8687 7.21073 10.8687C7.09949 10.8687 7.00414 10.69 7.00414 10.4626C7.00414 10.0889 6.94058 10.0564 6.28903 10.0564H5.57391V12.5746Z" fill="#33170B"/>
<path d="M18.2867 12.5584V15.044L19.2561 15.1578C20.3208 15.2715 20.6228 15.4339 20.8453 16.0351C20.9247 16.2463 20.9883 20.0641 20.9883 24.5318C21.0042 33.2398 20.9883 33.3211 20.1937 33.7272C19.9712 33.841 19.4627 33.9384 19.0495 33.9384H18.2867V35.9692V38H24.0077H29.7286V35.9692V33.9384H28.9817C28.5049 33.9384 28.0282 33.8247 27.7104 33.6298C27.2336 33.3211 27.2018 33.2561 27.1383 32.1189C27.1065 31.469 27.0906 27.6024 27.0906 23.5408C27.1224 18.0333 27.17 16.0513 27.3131 15.7914C27.5991 15.2715 28.0917 15.174 30.6026 15.174C33.034 15.174 33.463 15.2877 33.6537 16.0351C33.7332 16.2787 33.7809 20.2266 33.7809 24.808V33.1586L33.3359 33.5485C32.9863 33.8572 32.7162 33.9384 32.0169 33.9384H31.1588V35.9692V38H37.0386H42.9184V35.9855V33.9709L41.965 33.9059C41.2498 33.8572 40.9161 33.7435 40.646 33.4835L40.2964 33.1099L40.2646 24.9543C40.2487 20.4703 40.2646 16.5549 40.3281 16.2625C40.4871 15.2877 40.8684 15.174 43.9514 15.174C47.0184 15.174 47.3998 15.2877 47.5905 16.2625C47.7176 16.9448 47.7176 32.1026 47.5905 32.785C47.4316 33.5485 46.8595 33.9384 45.8425 33.9384H44.9843V35.9692V38H50.6893H56.4103V35.9855V33.9709L55.4568 33.9059C54.7575 33.8572 54.4238 33.7435 54.1537 33.4835L53.8041 33.1099V24.6293C53.8041 18.0983 53.8517 16.0675 54.0107 15.7914C54.2172 15.4014 55.0754 15.0928 55.9176 15.0928H56.4261V12.5746V10.0564H55.6316C54.9165 10.0564 54.837 10.1052 54.7417 10.4626C54.694 10.69 54.5668 10.885 54.4556 10.885C54.3603 10.9012 52.5963 10.9175 50.5463 10.9337L46.8118 10.95L46.7324 10.5438L46.6529 10.1377L44.0785 10.0889L41.52 10.0564L41.377 10.4951L41.2181 10.95H37.3406L33.463 10.9662L33.3836 10.5438L33.3041 10.1377H30.7615H28.2348L28.1394 10.5438L28.0441 10.95H24.1189H20.1937L20.0984 10.4951C20.0189 10.0889 19.9553 10.0564 19.1449 10.0564H18.2867V12.5584Z" fill="#33170B"/>
</svg>
